<svg width="110" height="72" viewBox="0 0 110 72" fill="none" xmlns="http://www.w3.org/2000/svg">
<path d="M51.9099 24.0409C45.1975 13.9428 52.2049 6.69159 68.3325 5.83301C68.3329 26.4391 60.9015 27.7062 51.9099 24.0409Z" fill="#E2DFCF" fill-opacity="0.18"/>
<path d="M58.0105 17.8532C51.1286 20.429 49.4082 30.732 50.2684 34.1663C50.2684 34.1663 45.9672 22.1461 41.666 22.1461M51.9101 24.0409C45.1977 13.9428 52.2052 6.69159 68.3327 5.83301C68.3331 26.4391 60.9017 27.7062 51.9101 24.0409Z" stroke="#503217" stroke-width="2.5" stroke-linecap="round" stroke-linejoin="round"/>
<path d="M8.046 58.574C8.718 58.694 9.288 59.048 9.756 59.636C10.224 60.224 10.458 60.89 10.458 61.634C10.458 62.27 10.29 62.846 9.954 63.362C9.63 63.866 9.156 64.268 8.532 64.568C7.908 64.856 7.182 65 6.354 65L1.35 65L1.35 52.49L6.12 52.49C6.972 52.49 7.704 52.634 8.316 52.922C8.928 53.21 9.39 53.6 9.702 54.092C10.014 54.572 10.17 55.112 10.17 55.712C10.17 56.432 9.978 57.032 9.594 57.512C9.21 57.992 8.694 58.346 8.046 58.574ZM3.402 57.746L5.94 57.746C6.612 57.746 7.134 57.596 7.506 57.296C7.89 56.984 8.082 56.54 8.082 55.964C8.082 55.4 7.89 54.962 7.506 54.65C7.134 54.326 6.612 54.164 5.94 54.164L3.402 54.164L3.402 57.746ZM6.174 63.326C6.87 63.326 7.416 63.158 7.812 62.822C8.208 62.486 8.406 62.018 8.406 61.418C8.406 60.806 8.196 60.32 7.776 59.96C7.356 59.6 6.798 59.42 6.102 59.42L3.402 59.42L3.402 63.326L6.174 63.326ZM21.7779 59.798C21.7779 60.17 21.7539 60.506 21.7059 60.806L14.1279 60.806C14.1879 61.598 14.4819 62.234 15.0099 62.714C15.5379 63.194 16.1859 63.434 16.9539 63.434C18.0579 63.434 18.8379 62.972 19.2939 62.048L21.5079 62.048C21.2079 62.96 20.6619 63.71 19.8699 64.298C19.0899 64.874 18.1179 65.162 16.9539 65.162C16.0059 65.162 15.1539 64.952 14.3979 64.532C13.6539 64.1 13.0659 63.5 12.6339 62.732C12.2139 61.952 12.0039 61.052 12.0039 60.032C12.0039 59.012 12.2079 58.118 12.6159 57.35C13.0359 56.57 13.6179 55.97 14.3619 55.55C15.1179 55.13 15.9819 54.92 16.9539 54.92C17.8899 54.92 18.7239 55.124 19.4559 55.532C20.1879 55.94 20.7579 56.516 21.1659 57.26C21.5739 57.992 21.7779 58.838 21.7779 59.798ZM19.6359 59.15C19.6239 58.394 19.3539 57.788 18.8259 57.332C18.2979 56.876 17.6439 56.648 16.8639 56.648C16.1559 56.648 15.5499 56.876 15.0459 57.332C14.5419 57.776 14.2419 58.382 14.1459 59.15L19.6359 59.15ZM23.1133 59.996C23.1133 59 23.3173 58.118 23.7253 57.35C24.1453 56.582 24.7093 55.988 25.4173 55.568C26.1373 55.136 26.9293 54.92 27.7933 54.92C28.5733 54.92 29.2513 55.076 29.8273 55.388C30.4153 55.688 30.8833 56.066 31.2313 56.522L31.2313 55.082L33.3013 55.082L33.3013 65L31.2313 65L31.2313 63.524C30.8833 63.992 30.4093 64.382 29.8093 64.694C29.2093 65.006 28.5253 65.162 27.7573 65.162C26.9053 65.162 26.1253 64.946 25.4173 64.514C24.7093 64.07 24.1453 63.458 23.7253 62.678C23.3173 61.886 23.1133 60.992 23.1133 59.996ZM31.2313 60.032C31.2313 59.348 31.0873 58.754 30.7993 58.25C30.5233 57.746 30.1573 57.362 29.7013 57.098C29.2453 56.834 28.7533 56.702 28.2253 56.702C27.6973 56.702 27.2053 56.834 26.7493 57.098C26.2933 57.35 25.9213 57.728 25.6333 58.232C25.3573 58.724 25.2193 59.312 25.2193 59.996C25.2193 60.68 25.3573 61.28 25.6333 61.796C25.9213 62.312 26.2933 62.708 26.7493 62.984C27.2173 63.248 27.7093 63.38 28.2253 63.38C28.7533 63.38 29.2453 63.248 29.7013 62.984C30.1573 62.72 30.5233 62.336 30.7993 61.832C31.0873 61.316 31.2313 60.716 31.2313 60.032ZM44.9785 55.082L44.9785 65L42.9265 65L42.9265 63.83C42.6025 64.238 42.1765 64.562 41.6485 64.802C41.1325 65.03 40.5805 65.144 39.9925 65.144C39.2125 65.144 38.5105 64.982 37.8865 64.658C37.2745 64.334 36.7885 63.854 36.4285 63.218C36.0805 62.582 35.9065 61.814 35.9065 60.914L35.9065 55.082L37.9405 55.082L37.9405 60.608C37.9405 61.496 38.1625 62.18 38.6065 62.66C39.0505 63.128 39.6565 63.362 40.4245 63.362C41.1925 63.362 41.7985 63.128 42.2425 62.66C42.6985 62.18 42.9265 61.496 42.9265 60.608L42.9265 55.082L44.9785 55.082ZM50.0799 56.756L50.0799 62.246C50.0799 62.618 50.1639 62.888 50.3319 63.056C50.5119 63.212 50.8119 63.29 51.2319 63.29L52.4919 63.29L52.4919 65L50.8719 65C49.9479 65 49.2399 64.784 48.7479 64.352C48.2559 63.92 48.0099 63.218 48.0099 62.246L48.0099 56.756L46.8399 56.756L46.8399 55.082L48.0099 55.082L48.0099 52.616L50.0799 52.616L50.0799 55.082L52.4919 55.082L52.4919 56.756L50.0799 56.756ZM63.3112 55.082L57.2272 69.662L55.1032 69.662L57.1192 64.838L53.2132 55.082L55.4992 55.082L58.2892 62.642L61.1872 55.082L63.3112 55.082ZM68.8515 60.032C68.8515 59.012 69.0555 58.118 69.4635 57.35C69.8835 56.57 70.4595 55.97 71.1915 55.55C71.9235 55.13 72.7635 54.92 73.7115 54.92C74.9115 54.92 75.9015 55.208 76.6815 55.784C77.4735 56.348 78.0075 57.158 78.2835 58.214L76.0695 58.214C75.8895 57.722 75.6015 57.338 75.2055 57.062C74.8095 56.786 74.3115 56.648 73.7115 56.648C72.8715 56.648 72.1995 56.948 71.6955 57.548C71.2035 58.136 70.9575 58.964 70.9575 60.032C70.9575 61.1 71.2035 61.934 71.6955 62.534C72.1995 63.134 72.8715 63.434 73.7115 63.434C74.8995 63.434 75.6855 62.912 76.0695 61.868L78.2835 61.868C77.9955 62.876 77.4555 63.68 76.6635 64.28C75.8715 64.868 74.8875 65.162 73.7115 65.162C72.7635 65.162 71.9235 64.952 71.1915 64.532C70.4595 64.1 69.8835 63.5 69.4635 62.732C69.0555 61.952 68.8515 61.052 68.8515 60.032ZM79.6445 59.996C79.6445 59 79.8485 58.118 80.2565 57.35C80.6765 56.582 81.2405 55.988 81.9485 55.568C82.6685 55.136 83.4605 54.92 84.3245 54.92C85.1045 54.92 85.7825 55.076 86.3585 55.388C86.9465 55.688 87.4145 56.066 87.7625 56.522L87.7625 55.082L89.8325 55.082L89.8325 65L87.7625 65L87.7625 63.524C87.4145 63.992 86.9405 64.382 86.3405 64.694C85.7405 65.006 85.0565 65.162 84.2885 65.162C83.4365 65.162 82.6565 64.946 81.9485 64.514C81.2405 64.07 80.6765 63.458 80.2565 62.678C79.8485 61.886 79.6445 60.992 79.6445 59.996ZM87.7625 60.032C87.7625 59.348 87.6185 58.754 87.3305 58.25C87.0545 57.746 86.6885 57.362 86.2325 57.098C85.7765 56.834 85.2845 56.702 84.7565 56.702C84.2285 56.702 83.7365 56.834 83.2805 57.098C82.8245 57.35 82.4525 57.728 82.1645 58.232C81.8885 58.724 81.7505 59.312 81.7505 59.996C81.7505 60.68 81.8885 61.28 82.1645 61.796C82.4525 62.312 82.8245 62.708 83.2805 62.984C83.7485 63.248 84.2405 63.38 84.7565 63.38C85.2845 63.38 85.7765 63.248 86.2325 62.984C86.6885 62.72 87.0545 62.336 87.3305 61.832C87.6185 61.316 87.7625 60.716 87.7625 60.032ZM94.5797 56.522C94.8797 56.018 95.2757 55.628 95.7677 55.352C96.2717 55.064 96.8657 54.92 97.5497 54.92L97.5497 57.044L97.0277 57.044C96.2237 57.044 95.6117 57.248 95.1917 57.656C94.7837 58.064 94.5797 58.772 94.5797 59.78L94.5797 65L92.5277 65L92.5277 55.082L94.5797 55.082L94.5797 56.522ZM108.526 59.798C108.526 60.17 108.502 60.506 108.454 60.806L100.876 60.806C100.936 61.598 101.23 62.234 101.758 62.714C102.286 63.194 102.934 63.434 103.702 63.434C104.806 63.434 105.586 62.972 106.042 62.048L108.256 62.048C107.956 62.96 107.41 63.71 106.618 64.298C105.838 64.874 104.866 65.162 103.702 65.162C102.754 65.162 101.902 64.952 101.146 64.532C100.402 64.1 99.8139 63.5 99.3819 62.732C98.9619 61.952 98.7519 61.052 98.7519 60.032C98.7519 59.012 98.9559 58.118 99.3639 57.35C99.7839 56.57 100.366 55.97 101.11 55.55C101.866 55.13 102.73 54.92 103.702 54.92C104.638 54.92 105.472 55.124 106.204 55.532C106.936 55.94 107.506 56.516 107.914 57.26C108.322 57.992 108.526 58.838 108.526 59.798ZM106.384 59.15C106.372 58.394 106.102 57.788 105.574 57.332C105.046 56.876 104.392 56.648 103.612 56.648C102.904 56.648 102.298 56.876 101.794 57.332C101.29 57.776 100.99 58.382 100.894 59.15L106.384 59.15Z" fill="#503217"/>
</svg>
