<svg width="21" height="21" viewBox="0 0 21 21" fill="none" xmlns="http://www.w3.org/2000/svg">
<path d="M7.4043 3.43555V3.43555C6.47529 3.43555 6.01079 3.43555 5.62212 3.49711C3.48266 3.83596 1.80471 5.51391 1.46586 7.65337C1.4043 8.04204 1.4043 8.50654 1.4043 9.43555V11.4355C1.4043 14.2358 1.4043 15.6359 1.94926 16.7055C2.42863 17.6463 3.19353 18.4112 4.13434 18.8906C5.2039 19.4355 6.60403 19.4355 9.4043 19.4355H11.4043C14.2046 19.4355 15.6047 19.4355 16.6742 18.8906C17.6151 18.4112 18.38 17.6463 18.8593 16.7055C19.4043 15.6359 19.4043 14.2358 19.4043 11.4355V9.43555C19.4043 8.50654 19.4043 8.04204 19.3427 7.65337C19.0039 5.51391 17.3259 3.83596 15.1865 3.49711C14.7978 3.43555 14.3333 3.43555 13.4043 3.43555V3.43555M7.4043 3.43555V4.93555M7.4043 3.43555V1.43555M7.4043 3.43555H13.4043M13.4043 3.43555V1.43555M13.4043 3.43555V4.93555M10.4043 15.4355V8.43555M5.9043 15.4355V8.43555M14.9043 15.4355V8.43555" stroke="#8F7D6A" stroke-width="1.5" stroke-linecap="round" stroke-linejoin="round"/>
</svg>
