<svg width="24" height="24" viewBox="0 0 24 24" fill="none" xmlns="http://www.w3.org/2000/svg">
<path fill-rule="evenodd" clip-rule="evenodd" d="M21.6969 15.8339C21.6969 17.8606 20.0483 19.5066 18.0242 19.5066H5.97464C3.95053 19.5066 2.30189 17.8606 2.30189 15.8339V8.16698C2.30189 7.49057 2.48709 6.85527 2.80856 6.31002L8.688 12.1895C9.56761 13.0716 10.7455 13.5577 12.0007 13.5577C13.2532 13.5577 14.4311 13.0716 15.3107 12.1895L21.1902 6.31002C21.5117 6.85527 21.6968 7.49052 21.6968 8.16698V15.8339H21.6969ZM18.0241 4.49427H5.97464C5.13877 4.49427 4.36716 4.77716 3.74991 5.24784L9.6885 11.189C10.3032 11.8011 11.1236 12.1406 12.0007 12.1406C12.8751 12.1406 13.6956 11.8011 14.3102 11.189L20.2488 5.24784C19.6316 4.77716 18.8601 4.49427 18.0241 4.49427ZM18.0241 3.07715H5.97464C3.16866 3.07715 0.884766 5.36104 0.884766 8.16702V15.834C0.884766 18.6426 3.16866 20.9239 5.97464 20.9239H18.0241C20.8301 20.9239 23.114 18.6426 23.114 15.834V8.16698C23.114 5.36099 20.8301 3.07715 18.0241 3.07715Z" fill="#8F7D6A"/>
</svg>
