<svg width="63" height="72" viewBox="0 0 63 72" fill="none" xmlns="http://www.w3.org/2000/svg">
<path d="M46.3234 15.7414C44.579 25.7921 31.4916 34.1663 31.4916 34.1663C31.4916 34.1663 18.3077 25.7918 16.6597 15.7419C15.0117 5.69209 26.5476 2.34173 31.4916 10.1322C36.4356 2.34159 48.0678 5.69073 46.3234 15.7414Z" fill="#E2DFCF" fill-opacity="0.18"/>
<path d="M16.5007 24.1685H19.7411C20.1439 24.1685 20.3452 24.1685 20.5239 24.0971C20.5828 24.0735 20.6393 24.0445 20.6927 24.0102C20.8547 23.9063 20.9717 23.7425 21.2058 23.4147L23.4983 20.2052C24.0411 19.4454 24.3125 19.0654 24.6822 18.9806C24.8003 18.9536 24.9223 18.9482 25.0424 18.9647C25.4181 19.0165 25.722 19.371 26.3297 20.08L28.2877 22.3644C28.9137 23.0947 29.2267 23.4598 29.6104 23.5077C29.7328 23.523 29.857 23.5155 29.9766 23.4856C30.3518 23.3919 30.6186 22.9918 31.1521 22.1915L34.9012 16.5678C35.5337 15.619 35.85 15.1446 36.2724 15.071C36.4059 15.0477 36.5427 15.0518 36.6746 15.083C37.0919 15.1819 37.3792 15.6743 37.9537 16.6593L41.8131 23.2755C42.0386 23.6619 42.1513 23.8552 42.3228 23.9791C42.3792 24.0198 42.4397 24.0546 42.5034 24.0828C42.6968 24.1685 42.9205 24.1685 43.368 24.1685H46.5008M46.3234 15.7414C44.579 25.7921 31.4916 34.1663 31.4916 34.1663C31.4916 34.1663 18.3077 25.7918 16.6597 15.7419C15.0117 5.69209 26.5476 2.34173 31.4916 10.1322C36.4356 2.34159 48.0678 5.69073 46.3234 15.7414Z" stroke="#503217" stroke-width="2.5" stroke-linecap="round" stroke-linejoin="round"/>
<path d="M8.712 52.49L8.712 54.164L3.402 54.164L3.402 57.854L7.542 57.854L7.542 59.528L3.402 59.528L3.402 65L1.35 65L1.35 52.49L8.712 52.49ZM11.6577 53.768C11.2857 53.768 10.9737 53.642 10.7217 53.39C10.4697 53.138 10.3437 52.826 10.3437 52.454C10.3437 52.082 10.4697 51.77 10.7217 51.518C10.9737 51.266 11.2857 51.14 11.6577 51.14C12.0177 51.14 12.3237 51.266 12.5757 51.518C12.8277 51.77 12.9537 52.082 12.9537 52.454C12.9537 52.826 12.8277 53.138 12.5757 53.39C12.3237 53.642 12.0177 53.768 11.6577 53.768ZM12.6657 55.082L12.6657 65L10.6137 65L10.6137 55.082L12.6657 55.082ZM17.7538 56.756L17.7538 62.246C17.7538 62.618 17.8378 62.888 18.0058 63.056C18.1858 63.212 18.4858 63.29 18.9058 63.29L20.1658 63.29L20.1658 65L18.5458 65C17.6218 65 16.9138 64.784 16.4218 64.352C15.9298 63.92 15.6838 63.218 15.6838 62.246L15.6838 56.756L14.5138 56.756L14.5138 55.082L15.6838 55.082L15.6838 52.616L17.7538 52.616L17.7538 55.082L20.1658 55.082L20.1658 56.756L17.7538 56.756ZM27.061 54.92C27.841 54.92 28.537 55.082 29.149 55.406C29.773 55.73 30.259 56.21 30.607 56.846C30.955 57.482 31.129 58.25 31.129 59.15L31.129 65L29.095 65L29.095 59.456C29.095 58.568 28.873 57.89 28.429 57.422C27.985 56.942 27.379 56.702 26.611 56.702C25.843 56.702 25.231 56.942 24.775 57.422C24.331 57.89 24.109 58.568 24.109 59.456L24.109 65L22.057 65L22.057 55.082L24.109 55.082L24.109 56.216C24.445 55.808 24.871 55.49 25.387 55.262C25.915 55.034 26.473 54.92 27.061 54.92ZM42.8365 59.798C42.8365 60.17 42.8125 60.506 42.7645 60.806L35.1865 60.806C35.2465 61.598 35.5405 62.234 36.0685 62.714C36.5965 63.194 37.2445 63.434 38.0125 63.434C39.1165 63.434 39.8965 62.972 40.3525 62.048L42.5665 62.048C42.2665 62.96 41.7205 63.71 40.9285 64.298C40.1485 64.874 39.1765 65.162 38.0125 65.162C37.0645 65.162 36.2125 64.952 35.4565 64.532C34.7125 64.1 34.1245 63.5 33.6925 62.732C33.2725 61.952 33.0625 61.052 33.0625 60.032C33.0625 59.012 33.2665 58.118 33.6745 57.35C34.0945 56.57 34.6765 55.97 35.4205 55.55C36.1765 55.13 37.0405 54.92 38.0125 54.92C38.9485 54.92 39.7825 55.124 40.5145 55.532C41.2465 55.94 41.8165 56.516 42.2245 57.26C42.6325 57.992 42.8365 58.838 42.8365 59.798ZM40.6945 59.15C40.6825 58.394 40.4125 57.788 39.8845 57.332C39.3565 56.876 38.7025 56.648 37.9225 56.648C37.2145 56.648 36.6085 56.876 36.1045 57.332C35.6005 57.776 35.3005 58.382 35.2045 59.15L40.6945 59.15ZM48.4559 65.162C47.6759 65.162 46.9739 65.024 46.3499 64.748C45.7379 64.46 45.2519 64.076 44.8919 63.596C44.5319 63.104 44.3399 62.558 44.3159 61.958L46.4399 61.958C46.4759 62.378 46.6739 62.732 47.0339 63.02C47.4059 63.296 47.8679 63.434 48.4199 63.434C48.9959 63.434 49.4399 63.326 49.7519 63.11C50.0759 62.882 50.2379 62.594 50.2379 62.246C50.2379 61.874 50.0579 61.598 49.6979 61.418C49.3499 61.238 48.7919 61.04 48.0239 60.824C47.2799 60.62 46.6739 60.422 46.2059 60.23C45.7379 60.038 45.3299 59.744 44.9819 59.348C44.6459 58.952 44.4779 58.43 44.4779 57.782C44.4779 57.254 44.6339 56.774 44.9459 56.342C45.2579 55.898 45.7019 55.55 46.2779 55.298C46.8659 55.046 47.5379 54.92 48.2939 54.92C49.4219 54.92 50.3279 55.208 51.0119 55.784C51.7079 56.348 52.0799 57.122 52.1279 58.106L50.0759 58.106C50.0399 57.662 49.8599 57.308 49.5359 57.044C49.2119 56.78 48.7739 56.648 48.2219 56.648C47.6819 56.648 47.2679 56.75 46.9799 56.954C46.6919 57.158 46.5479 57.428 46.5479 57.764C46.5479 58.028 46.6439 58.25 46.8359 58.43C47.0279 58.61 47.2619 58.754 47.5379 58.862C47.8139 58.958 48.2219 59.084 48.7619 59.24C49.4819 59.432 50.0699 59.63 50.5259 59.834C50.9939 60.026 51.3959 60.314 51.7319 60.698C52.0679 61.082 52.2419 61.592 52.2539 62.228C52.2539 62.792 52.0979 63.296 51.7859 63.74C51.4739 64.184 51.0299 64.532 50.4539 64.784C49.8899 65.036 49.2239 65.162 48.4559 65.162ZM58.0711 65.162C57.2911 65.162 56.5891 65.024 55.9651 64.748C55.3531 64.46 54.8671 64.076 54.5071 63.596C54.1471 63.104 53.9551 62.558 53.9311 61.958L56.0551 61.958C56.0911 62.378 56.2891 62.732 56.6491 63.02C57.0211 63.296 57.4831 63.434 58.0351 63.434C58.6111 63.434 59.0551 63.326 59.3671 63.11C59.6911 62.882 59.8531 62.594 59.8531 62.246C59.8531 61.874 59.6731 61.598 59.3131 61.418C58.9651 61.238 58.4071 61.04 57.6391 60.824C56.8951 60.62 56.2891 60.422 55.8211 60.23C55.3531 60.038 54.9451 59.744 54.5971 59.348C54.2611 58.952 54.0931 58.43 54.0931 57.782C54.0931 57.254 54.2491 56.774 54.5611 56.342C54.8731 55.898 55.3171 55.55 55.8931 55.298C56.4811 55.046 57.1531 54.92 57.9091 54.92C59.0371 54.92 59.9431 55.208 60.6271 55.784C61.3231 56.348 61.6951 57.122 61.7431 58.106L59.6911 58.106C59.6551 57.662 59.4751 57.308 59.1511 57.044C58.8271 56.78 58.3891 56.648 57.8371 56.648C57.2971 56.648 56.8831 56.75 56.5951 56.954C56.3071 57.158 56.1631 57.428 56.1631 57.764C56.1631 58.028 56.2591 58.25 56.4511 58.43C56.6431 58.61 56.8771 58.754 57.1531 58.862C57.4291 58.958 57.8371 59.084 58.3771 59.24C59.0971 59.432 59.6851 59.63 60.1411 59.834C60.6091 60.026 61.0111 60.314 61.3471 60.698C61.6831 61.082 61.8571 61.592 61.8691 62.228C61.8691 62.792 61.7131 63.296 61.4011 63.74C61.0891 64.184 60.6451 64.532 60.0691 64.784C59.5051 65.036 58.8391 65.162 58.0711 65.162Z" fill="#503217"/>
</svg>
