<svg width="20" height="20" viewBox="0 0 20 20" fill="none" xmlns="http://www.w3.org/2000/svg">
<path opacity="0.5" d="M10 1H8.2C5.20021 1 3.70032 1 2.64886 1.76393C2.30928 2.01065 2.01065 2.30928 1.76393 2.64886C1 3.70032 1 5.20021 1 8.2V11.8C1 14.7998 1 16.2997 1.76393 17.3511C2.01065 17.6907 2.30928 17.9893 2.64886 18.2361C3.70032 19 5.20021 19 8.2 19H11.8C14.7998 19 16.2997 19 17.3511 18.2361C17.6907 17.9893 17.9893 17.6907 18.2361 17.3511C19 16.2997 19 14.7998 19 11.8V10M17.0916 5.53978L11.8255 10.8057C11.2703 11.3608 10.9928 11.6384 10.6706 11.855C10.5635 11.927 10.453 11.9937 10.3395 12.055C9.9979 12.2395 9.62307 12.3561 8.87341 12.5893L6.75 13.25L7.41027 11.1269C7.64349 10.377 7.76011 10.002 7.9446 9.66029C8.00592 9.54672 8.0727 9.43619 8.14471 9.32907C8.36136 9.00679 8.63904 8.72913 9.19438 8.1738L14.46 2.90833M17.0916 5.53978L14.46 2.90833M17.0916 5.53978L18.4342 4.19722C19.1609 3.47055 19.1609 2.29235 18.4342 1.56568V1.56568C17.7075 0.839042 16.5294 0.839042 15.8027 1.56568L14.46 2.90833" stroke="#503217" stroke-width="1.5" stroke-linecap="round" stroke-linejoin="round"/>
</svg>
