<svg width="60" height="60" viewBox="0 0 60 60" fill="none" xmlns="http://www.w3.org/2000/svg">
<g clip-path="url(#clip0_1189_68)">
<path d="M59.375 34.7001C58.836 33.9006 58.0035 33.3458 57.058 33.1563C56.1126 32.9667 55.1305 33.1576 54.325 33.6876L51.825 35.3626C51.9341 34.7238 51.8382 34.0668 51.551 33.4858C51.2637 32.9048 50.8 32.4297 50.2261 32.1286C49.6522 31.8274 48.9977 31.7157 48.3564 31.8094C47.7151 31.903 47.12 32.1974 46.6562 32.6501L41.225 37.9689C40.7375 37.7251 42.8187 38.5439 26.7687 32.3439C25.6666 31.9168 24.4896 31.7165 23.3083 31.7552C22.127 31.7938 20.9656 32.0706 19.8937 32.5689C19.3125 32.8376 19.6312 32.6751 17.25 34.0001C17.0815 33.8141 16.8761 33.6652 16.6469 33.563C16.4177 33.4608 16.1697 33.4074 15.9187 33.4064L0.625 33.4064C0.45924 33.4064 0.300268 33.4722 0.183058 33.5894C0.0658481 33.7066 2.65251e-08 33.8656 2.86039e-08 34.0314L2.68052e-07 53.1251C2.70131e-07 53.2909 0.0658483 53.4499 0.183059 53.5671C0.300269 53.6843 0.45924 53.7501 0.625 53.7501L17.075 53.7501C17.2408 53.7501 17.3997 53.6843 17.5169 53.5671C17.6342 53.4499 17.7 53.2909 17.7 53.1251L17.7 50.4501C19.1 50.4501 19.6563 50.3564 20.5625 50.6876L31.5437 54.7501C33.7417 55.5667 36.1213 55.7653 38.4242 55.3246C40.7271 54.8839 42.8652 53.8205 44.6062 52.2501L58.7937 39.4501C59.4442 38.8597 59.8607 38.0551 59.9674 37.1832C60.0741 36.3112 59.8639 35.43 59.375 34.7001ZM47.5 33.5439C47.7553 33.2847 48.0822 33.1078 48.4387 33.0358C48.7953 32.9638 49.1652 32.9999 49.5011 33.1396C49.8369 33.2793 50.1234 33.5162 50.3236 33.8199C50.5239 34.1236 50.6288 34.4801 50.625 34.8439C50.625 35.4689 50.3437 35.8064 49.8375 36.6814C42.55 41.5189 43.2562 41.0564 43.25 40.9939C43.1887 40.1484 42.8274 39.3527 42.2312 38.7501L47.5 33.5439ZM15.8812 34.6814C15.9835 34.6833 16.0833 34.7128 16.1702 34.7667C16.2571 34.8206 16.3278 34.8969 16.375 34.9876C16.4875 35.1939 16.45 34.2626 16.45 46.0876L13.95 46.0876L13.95 34.6814L15.8812 34.6814ZM1.25 34.6814L12.6937 34.6814L12.6937 46.0876L7.1125 46.0876C6.07592 46.0893 5.08237 46.5022 4.34998 47.2358C3.6176 47.9693 3.20625 48.9636 3.20625 50.0001L3.20625 52.5001L1.25 52.5001L1.25 34.6814ZM4.45625 50.0001C4.4579 49.2962 4.73828 48.6215 5.23607 48.1237C5.73386 47.6259 6.40853 47.3455 7.1125 47.3439L16.45 47.3439L16.45 52.5001L4.45625 52.5001L4.45625 50.0001ZM57.9562 38.5189L43.75 51.3126C42.1797 52.7311 40.2509 53.6924 38.1729 54.0923C36.095 54.4923 33.9471 54.3156 31.9625 53.5814C18.9937 48.7876 20.7125 49.1501 17.6812 49.2064L17.6812 35.1814C19.9125 33.9314 19.8625 33.9314 20.4125 33.7001C21.3324 33.2822 22.3267 33.0525 23.3367 33.0246C24.3467 32.9967 25.3521 33.1711 26.2937 33.5376C41.7875 39.5001 40.5625 38.9939 40.9437 39.2564C41.3924 39.5651 41.7224 40.0176 41.8792 40.5392C42.036 41.0607 42.0103 41.6202 41.8062 42.1251C41.5783 42.6853 41.1497 43.1404 40.6043 43.4016C40.0588 43.6628 39.4356 43.7113 38.8562 43.5376L26.55 39.7439C26.3953 39.7072 26.2324 39.731 26.0945 39.8102C25.9566 39.8895 25.8541 40.0183 25.8079 40.1705C25.7617 40.3226 25.7753 40.4867 25.8458 40.6292C25.9163 40.7717 26.0385 40.882 26.1875 40.9376C39.5375 45.0501 38.8125 44.8876 39.5687 44.8876C40.2636 44.8858 40.9438 44.6877 41.5309 44.3162C42.1181 43.9447 42.5884 43.4148 42.8875 42.7876L55 34.7314C55.5017 34.4349 56.0941 34.331 56.6668 34.4392C57.2394 34.5475 57.7531 34.8603 58.112 35.3195C58.4709 35.7786 58.6504 36.3527 58.6172 36.9345C58.5839 37.5163 58.3401 38.0661 57.9312 38.4814L57.9562 38.5189Z" fill="#503217"/>
<path d="M38.2933 22.3126C37.4399 23.1656 36.8577 24.2518 36.62 25.4347C36.3822 26.6176 36.4995 27.8444 36.9571 28.9609C37.4147 30.0773 38.1921 31.0336 39.1917 31.7094C40.1913 32.3852 41.3683 32.7503 42.5749 32.759C43.7814 32.7677 44.9636 32.4194 45.9727 31.758C46.9819 31.0966 47.773 30.1516 48.2465 29.0419C48.7201 27.9321 48.855 26.7071 48.6342 25.5209C48.4135 24.3347 47.8469 23.2402 47.0058 22.3751C45.0871 20.1189 40.8808 19.7189 38.2933 22.3126ZM45.6246 22.7876C45.6996 22.8501 46.2121 22.2876 38.8371 29.6626C38.104 28.7305 37.7364 27.5629 37.8031 26.379C37.8698 25.195 38.3663 24.0762 39.1994 23.2323C40.0325 22.3885 41.145 21.8777 42.328 21.7958C43.511 21.7139 44.6832 22.0666 45.6246 22.7876ZM46.0871 30.0814C45.2617 30.9105 44.1644 31.4134 42.9974 31.4972C41.8305 31.5811 40.6725 31.2403 39.7371 30.5376L46.5183 23.7501C47.2146 24.6846 47.5516 25.8383 47.4678 27.0006C47.384 28.1629 46.8851 29.2564 46.0621 30.0814L46.0871 30.0814Z" fill="#503217"/>
<path d="M25.7942 27.7C26.1595 28.0652 26.5931 28.3549 27.0703 28.5526C27.5475 28.7503 28.0589 28.852 28.5755 28.852C29.092 28.852 29.6035 28.7503 30.0807 28.5526C30.5579 28.3549 30.9915 28.0652 31.3567 27.7C31.722 27.3347 32.0117 26.9011 32.2093 26.4239C32.407 25.9467 32.5088 25.4353 32.5088 24.9187C32.5088 24.4022 32.407 23.8907 32.2093 23.4135C32.0117 22.9363 31.722 22.5027 31.3567 22.1375L25.9255 16.7062C25.1878 15.9686 24.1874 15.5542 23.1442 15.5542C22.101 15.5542 21.1006 15.9686 20.363 16.7062C19.6253 17.4439 19.2109 18.4443 19.2109 19.4875C19.2109 20.5307 19.6253 21.5311 20.363 22.2687L25.7942 27.7ZM30.4755 23.025C30.9419 23.5361 31.1932 24.2073 31.1771 24.8991C31.161 25.5908 30.8788 26.2496 30.3891 26.7385C29.8995 27.2273 29.2401 27.5085 28.5484 27.5234C27.8566 27.5384 27.1858 27.286 26.6755 26.8187L24.4067 24.55L28.2005 20.75L30.4755 23.025ZM21.2505 17.6C21.7553 17.0977 22.4384 16.8158 23.1505 16.8158C23.8626 16.8158 24.5457 17.0977 25.0505 17.6L27.3255 19.875L23.5317 23.6687L21.2505 21.3875C20.749 20.8848 20.4673 20.2038 20.4673 19.4937C20.4673 18.7837 20.749 18.1026 21.2505 17.6Z" fill="#503217"/>
<path d="M34.999 18.3499C35.0715 18.462 35.1779 18.548 35.3028 18.5952C35.4276 18.6424 35.5643 18.6485 35.6928 18.6124C35.7615 18.6124 35.349 18.7249 37.6428 17.9874C39.9338 17.2831 41.9072 15.8015 43.2228 13.7979C44.5383 11.7944 45.1135 9.3946 44.849 7.01241L44.6178 4.99991C44.6072 4.90865 44.5767 4.82085 44.5283 4.74274C44.4799 4.66464 44.415 4.59816 44.338 4.54803C44.261 4.4979 44.1739 4.46536 44.0829 4.45272C43.9919 4.44008 43.8993 4.44766 43.8115 4.47491L41.874 5.06866C39.5779 5.77628 37.6013 7.26439 36.2865 9.27544C34.9716 11.2865 34.4013 13.694 34.674 16.0812C34.8865 17.8999 34.8865 18.1687 34.999 18.3499ZM42.249 6.24991L43.4615 5.87491L43.6053 7.12491C43.851 9.26872 43.3221 11.4297 42.114 13.2177C40.906 15.0057 39.0984 16.3029 37.0178 16.8749L40.6928 11.3624C40.7838 11.2254 40.8172 11.058 40.7856 10.8965C40.754 10.735 40.66 10.5925 40.524 10.4999C40.4559 10.4538 40.3794 10.4217 40.2989 10.4052C40.2183 10.3888 40.1353 10.3884 40.0546 10.404C39.9739 10.4197 39.8971 10.4512 39.8286 10.4966C39.7601 10.542 39.7012 10.6005 39.6553 10.6687L35.9553 16.2499C35.6309 14.1054 36.088 11.9156 37.2433 10.08C38.3986 8.24434 40.1752 6.88504 42.249 6.24991Z" fill="#503217"/>
</g>
<defs>
<clipPath id="clip0_1189_68">
<rect width="60" height="60" fill="white"/>
</clipPath>
</defs>
</svg>
