<svg width="34" height="30" viewBox="0 0 34 30" fill="none" xmlns="http://www.w3.org/2000/svg">
<path d="M2.03333 10.0003H31.9667M19.5 15.0003H22.8333M9.2 28.3337H24.8C27.7998 28.3337 29.2997 28.3337 30.3511 27.5697C30.6907 27.323 30.9893 27.0244 31.2361 26.6848C32 25.6333 32 24.1334 32 21.1337V8.86699C32 5.86721 32 4.36731 31.2361 3.31585C30.9893 2.97627 30.6907 2.67764 30.3511 2.43092C29.2997 1.66699 27.7998 1.66699 24.8 1.66699H9.2C6.20021 1.66699 4.70032 1.66699 3.64886 2.43092C3.30928 2.67764 3.01065 2.97627 2.76393 3.31585C2 4.36731 2 5.8672 2 8.86699V21.1337C2 24.1334 2 25.6333 2.76393 26.6848C3.01065 27.0244 3.30928 27.323 3.64886 27.5697C4.70032 28.3337 6.20021 28.3337 9.2 28.3337Z" stroke="#503217" stroke-width="2.5" stroke-linecap="round" stroke-linejoin="round"/>
</svg>
