<svg width="24" height="24" viewBox="0 0 24 24" fill="none" xmlns="http://www.w3.org/2000/svg">
<path d="M12.425 0.75H11.575C10.4501 0.75 9.88762 0.75 9.49332 1.03647C9.36598 1.12899 9.25399 1.24098 9.16147 1.36832C8.875 1.76262 8.875 2.32508 8.875 3.45V8.875H3.45C2.32508 8.875 1.76262 8.875 1.36832 9.16147C1.24098 9.25399 1.12899 9.36598 1.03647 9.49332C0.75 9.88762 0.75 10.4501 0.75 11.575V12.425C0.75 13.5499 0.75 14.1124 1.03647 14.5067C1.12899 14.634 1.24098 14.746 1.36832 14.8385C1.76262 15.125 2.32508 15.125 3.45 15.125H8.875V20.55C8.875 21.6749 8.875 22.2374 9.16147 22.6317C9.25399 22.759 9.36598 22.871 9.49332 22.9635C9.88762 23.25 10.4501 23.25 11.575 23.25H12.425C13.5499 23.25 14.1124 23.25 14.5067 22.9635C14.634 22.871 14.746 22.759 14.8385 22.6317C15.125 22.2374 15.125 21.6749 15.125 20.55V15.125H20.55C21.6749 15.125 22.2374 15.125 22.6317 14.8385C22.759 14.746 22.871 14.634 22.9635 14.5067C23.25 14.1124 23.25 13.5499 23.25 12.425V11.575C23.25 10.4501 23.25 9.88762 22.9635 9.49332C22.871 9.36598 22.759 9.25399 22.6317 9.16147C22.2374 8.875 21.6749 8.875 20.55 8.875H15.125V3.45C15.125 2.32508 15.125 1.76262 14.8385 1.36832C14.746 1.24098 14.634 1.12899 14.5067 1.03647C14.1124 0.75 13.5499 0.75 12.425 0.75Z" stroke="#503217" stroke-width="1.5" stroke-linecap="round" stroke-linejoin="round"/>
</svg>
