<svg width="89" height="89" viewBox="0 0 89 89" fill="none" xmlns="http://www.w3.org/2000/svg">
<g opacity="0.15">
<path d="M31.7033 47.1396C30.382 47.1419 29.0732 46.8831 27.8523 46.378C26.6313 45.8729 25.5222 45.1315 24.5887 44.1963L10.4137 30.0213C8.52679 28.134 7.4668 25.5745 7.4668 22.9058C7.4668 20.237 8.52679 17.6775 10.4137 15.7902L11.8234 14.3804C13.7107 12.4936 16.2702 11.4336 18.939 11.4336C21.6077 11.4336 24.1672 12.4936 26.0545 14.3804L40.2286 28.5564C41.1636 29.4904 41.9054 30.5995 42.4115 31.8204C42.9175 33.0412 43.178 34.3499 43.178 35.6715C43.178 36.9931 42.9175 38.3017 42.4115 39.5226C41.9054 40.7434 41.1636 41.8526 40.2286 42.7866L38.8189 44.1963C37.885 45.1311 36.7756 45.8724 35.5546 46.3774C34.3335 46.8825 33.0247 47.1415 31.7033 47.1396ZM18.9381 14.2843C17.9907 14.2828 17.0523 14.4684 16.1768 14.8305C15.3014 15.1926 14.5061 15.7242 13.8366 16.3945L12.4268 17.8043C11.0757 19.1583 10.3169 20.993 10.3169 22.9058C10.3169 24.8186 11.0757 26.6532 12.4268 28.0072L26.6019 42.1858C27.9561 43.5365 29.7907 44.295 31.7033 44.295C33.616 44.295 35.4506 43.5365 36.8048 42.1858L38.2155 40.7752C39.5661 39.4209 40.3246 37.5863 40.3246 35.6737C40.3246 33.761 39.5661 31.9265 38.2155 30.5722L24.0396 16.3945C23.3701 15.7242 22.5748 15.1926 21.6993 14.8305C20.8239 14.4684 19.8855 14.2828 18.9381 14.2843Z" fill="#8F7D6A"/>
<path d="M18.3911 37.4101C18.1084 37.4101 17.8321 37.3261 17.5973 37.1685C17.3626 37.011 17.18 36.7872 17.0729 36.5255C16.9658 36.2639 16.939 35.9763 16.996 35.6994C17.0529 35.4225 17.1909 35.1688 17.3925 34.9706L31.135 21.4595C31.4043 21.1947 31.7678 21.0477 32.1455 21.0508C32.5233 21.054 32.8842 21.2071 33.1491 21.4764C33.4139 21.7457 33.5609 22.1092 33.5578 22.487C33.5546 22.8647 33.4015 23.2256 33.1322 23.4905L19.3888 37.0016C19.1229 37.2637 18.7645 37.4105 18.3911 37.4101Z" fill="#8F7D6A"/>
<path d="M66.1176 49.2274C57.6154 49.2274 50.6992 42.3112 50.6992 33.81C50.6992 25.3087 57.6154 18.3916 66.1176 18.3916C74.6197 18.3916 81.535 25.3078 81.535 33.81C81.535 42.3121 74.6189 49.2274 66.1176 49.2274ZM66.1176 21.2396C59.1854 21.2396 53.5472 26.8778 53.5472 33.81C53.5472 40.7422 59.1854 46.3794 66.1176 46.3794C73.0498 46.3794 78.687 40.7413 78.687 33.81C78.687 26.8786 73.0489 21.2396 66.1176 21.2396Z" fill="#8F7D6A"/>
<path d="M80.111 35.2337H52.1232C51.7456 35.2337 51.3833 35.0837 51.1163 34.8167C50.8492 34.5496 50.6992 34.1874 50.6992 33.8097C50.6992 33.4321 50.8492 33.0699 51.1163 32.8028C51.3833 32.5358 51.7456 32.3857 52.1232 32.3857H80.111C80.4887 32.3857 80.8509 32.5358 81.118 32.8028C81.385 33.0699 81.535 33.4321 81.535 33.8097C81.535 34.1874 81.385 34.5496 81.118 34.8167C80.8509 35.0837 80.4887 35.2337 80.111 35.2337Z" fill="#8F7D6A"/>
<path d="M40.0597 77.5605C38.3887 77.5632 36.7336 77.2358 35.1895 76.5971C33.6454 75.9583 32.2426 75.0209 31.0618 73.8385C26.0992 68.8759 26.0992 60.8018 31.0618 55.8392C36.0245 50.8765 44.0985 50.8765 49.0612 55.8392C54.0238 60.8018 54.0238 68.8759 49.0612 73.8385C47.8799 75.0213 46.4766 75.959 44.9319 76.5977C43.3871 77.2365 41.7313 77.5637 40.0597 77.5605ZM33.0741 71.8227C34.4558 73.204 36.2161 74.1446 38.1324 74.5256C40.0486 74.9065 42.0348 74.7107 43.8398 73.9629C45.6448 73.2151 47.1875 71.9489 48.2729 70.3244C49.3583 68.6998 49.9376 66.7899 49.9376 64.8362C49.9376 62.8824 49.3583 60.9725 48.2729 59.348C47.1875 57.7235 45.6448 56.4572 43.8398 55.7094C42.0348 54.9616 40.0486 54.7658 38.1324 55.1468C36.2161 55.5278 34.4558 56.4684 33.0741 57.8497C31.2239 59.704 30.1848 62.2166 30.1848 64.8362C30.1848 67.4557 31.2239 69.9683 33.0741 71.8227Z" fill="#8F7D6A"/>
<path d="M32.0668 74.2546C31.785 74.2547 31.5095 74.1711 31.2752 74.0145C31.0409 73.8578 30.8583 73.6352 30.7506 73.3747C30.6429 73.1143 30.615 72.8277 30.6702 72.5514C30.7255 72.275 30.8615 72.0213 31.0611 71.8223L47.0455 55.8388C47.3159 55.5911 47.6715 55.4573 48.0381 55.4652C48.4047 55.4731 48.7541 55.6221 49.0136 55.8813C49.273 56.1404 49.4226 56.4896 49.431 56.8562C49.4394 57.2228 49.306 57.5785 49.0587 57.8493L33.0734 73.8381C32.8063 74.1049 32.4443 74.2547 32.0668 74.2546Z" fill="#8F7D6A"/>
</g>
</svg>
