<svg width="14" height="12" viewBox="0 0 14 12" fill="none" xmlns="http://www.w3.org/2000/svg">
<path d="M13.1539 1.8669C12.6631 2.07954 12.1561 2.22675 11.6163 2.29218C12.1724 1.96504 12.5977 1.44162 12.794 0.803704C12.2706 1.11448 11.6981 1.32712 11.0929 1.45798C10.6022 0.934559 9.89884 0.607422 9.13006 0.607422C7.64159 0.607422 6.44754 1.81783 6.44754 3.28995C6.44754 3.50259 6.46389 3.69887 6.51297 3.89515C4.28843 3.79701 2.32561 2.71746 1.0007 1.09813C0.0520026 2.79924 1.1152 4.20593 1.81854 4.68028C1.39327 4.68028 0.967987 4.54943 0.608136 4.35314C0.608136 5.67805 1.54048 6.77396 2.75089 7.01931C2.48918 7.1011 1.90033 7.15017 1.54048 7.06838C1.88397 8.13158 2.88174 8.91671 4.04308 8.93307C3.12709 9.65277 1.78583 10.2253 0.0683595 10.0453C1.26241 10.8141 2.6691 11.2557 4.19029 11.2557C9.13006 11.2557 11.8126 7.16652 11.8126 3.63344C11.8126 3.51894 11.8126 3.40445 11.7962 3.28995C12.3524 2.88103 12.8104 2.40668 13.1539 1.8669Z" fill="#F2F2F2"/>
</svg>
