<svg width="34" height="35" viewBox="0 0 34 35" fill="none" xmlns="http://www.w3.org/2000/svg">
<path d="M12.8333 17.8337L14.6672 20.2788C14.9389 20.641 15.0747 20.8222 15.2563 20.8619C15.3144 20.8747 15.3743 20.8769 15.4331 20.8686C15.6171 20.8426 15.7663 20.6722 16.0645 20.3314L21.1667 14.5003M17 32.8337C25.2068 32.8337 30.0739 22.9628 31.6012 13.3208C31.8111 11.9955 31.9161 11.3328 31.6843 10.6379C31.6134 10.4253 31.4972 10.1796 31.3779 9.98989C30.9879 9.36977 30.3527 8.99725 29.0822 8.25221L19.7316 2.76887C18.5507 2.07633 17.9602 1.73005 17.3176 1.66164C17.1065 1.63916 16.8935 1.63916 16.6824 1.66164C16.0398 1.73005 15.4493 2.07633 14.2684 2.76887L4.91784 8.25221C3.64735 8.99725 3.0121 9.36977 2.62209 9.98989C2.5028 10.1796 2.3866 10.4253 2.3157 10.6379C2.08393 11.3328 2.1889 11.9955 2.39883 13.3208C3.92613 22.9628 8.79318 32.8337 17 32.8337Z" stroke="#503217" stroke-width="2.5" stroke-linecap="round" stroke-linejoin="round"/>
</svg>
