<svg width="8" height="13" viewBox="0 0 8 13" fill="none" xmlns="http://www.w3.org/2000/svg">
<path d="M2.44612 7.59008C2.40035 7.59008 1.39336 7.59008 0.93564 7.59008C0.691522 7.59008 0.615234 7.49853 0.615234 7.26967C0.615234 6.65938 0.615234 6.03382 0.615234 5.42353C0.615234 5.17941 0.706779 5.10312 0.93564 5.10312L2.44612 5.10312C2.44612 5.05735 2.44612 4.17242 2.44612 3.76047C2.44612 3.15017 2.55293 2.57039 2.85807 2.03638C3.17848 1.48711 3.6362 1.12093 4.21598 0.907331C4.59742 0.770014 4.97885 0.708984 5.39081 0.708984L6.88603 0.708984C7.09964 0.708984 7.19118 0.800529 7.19118 1.01413L7.19118 2.75348C7.19118 2.96708 7.09964 3.05863 6.88603 3.05863C6.47408 3.05863 6.06213 3.05863 5.65018 3.07388C5.23823 3.07388 5.02463 3.27223 5.02463 3.69944C5.00937 4.15716 5.02463 4.59962 5.02463 5.0726L6.79449 5.0726C7.03861 5.0726 7.13015 5.16415 7.13015 5.40827L7.13015 7.25441C7.13015 7.49853 7.05386 7.57482 6.79449 7.57482C6.24522 7.57482 5.0704 7.57482 5.02463 7.57482L5.02463 12.5487C5.02463 12.8081 4.94834 12.8997 4.67371 12.8997C4.0329 12.8997 3.40734 12.8997 2.76653 12.8997C2.53767 12.8997 2.44612 12.8081 2.44612 12.5793C2.44612 10.9772 2.44612 7.63585 2.44612 7.59008Z" fill="#F2F2F2"/>
</svg>
