<svg width="105" height="72" viewBox="0 0 105 72" fill="none" xmlns="http://www.w3.org/2000/svg">
<path d="M67.3234 15.7414C65.579 25.7921 52.4916 34.1663 52.4916 34.1663C52.4916 34.1663 39.3077 25.7918 37.6597 15.7419C36.0117 5.69209 47.5476 2.34173 52.4916 10.1322C57.4356 2.34159 69.0678 5.69073 67.3234 15.7414Z" fill="#E2DFCF" fill-opacity="0.18"/>
<path d="M67.3234 15.7414C65.579 25.7921 52.4916 34.1663 52.4916 34.1663C52.4916 34.1663 39.3077 25.7918 37.6597 15.7419C36.0117 5.69209 47.5476 2.34173 52.4916 10.1322C57.4356 2.34159 69.0678 5.69073 67.3234 15.7414Z" stroke="#503217" stroke-width="2.5" stroke-linecap="round" stroke-linejoin="round"/>
<path d="M11.34 52.49L11.34 65L9.288 65L9.288 59.528L3.402 59.528L3.402 65L1.35 65L1.35 52.49L3.402 52.49L3.402 57.854L9.288 57.854L9.288 52.49L11.34 52.49ZM23.1314 59.798C23.1314 60.17 23.1074 60.506 23.0594 60.806L15.4814 60.806C15.5414 61.598 15.8354 62.234 16.3634 62.714C16.8914 63.194 17.5394 63.434 18.3074 63.434C19.4114 63.434 20.1914 62.972 20.6474 62.048L22.8614 62.048C22.5614 62.96 22.0154 63.71 21.2234 64.298C20.4434 64.874 19.4714 65.162 18.3074 65.162C17.3594 65.162 16.5074 64.952 15.7514 64.532C15.0074 64.1 14.4194 63.5 13.9874 62.732C13.5674 61.952 13.3574 61.052 13.3574 60.032C13.3574 59.012 13.5614 58.118 13.9694 57.35C14.3894 56.57 14.9714 55.97 15.7154 55.55C16.4714 55.13 17.3354 54.92 18.3074 54.92C19.2434 54.92 20.0774 55.124 20.8094 55.532C21.5414 55.94 22.1114 56.516 22.5194 57.26C22.9274 57.992 23.1314 58.838 23.1314 59.798ZM20.9894 59.15C20.9774 58.394 20.7074 57.788 20.1794 57.332C19.6514 56.876 18.9974 56.648 18.2174 56.648C17.5094 56.648 16.9034 56.876 16.3994 57.332C15.8954 57.776 15.5954 58.382 15.4994 59.15L20.9894 59.15ZM24.4668 59.996C24.4668 59 24.6708 58.118 25.0788 57.35C25.4988 56.582 26.0628 55.988 26.7708 55.568C27.4908 55.136 28.2828 54.92 29.1468 54.92C29.9268 54.92 30.6048 55.076 31.1808 55.388C31.7688 55.688 32.2368 56.066 32.5848 56.522L32.5848 55.082L34.6548 55.082L34.6548 65L32.5848 65L32.5848 63.524C32.2368 63.992 31.7628 64.382 31.1628 64.694C30.5628 65.006 29.8788 65.162 29.1108 65.162C28.2588 65.162 27.4788 64.946 26.7708 64.514C26.0628 64.07 25.4988 63.458 25.0788 62.678C24.6708 61.886 24.4668 60.992 24.4668 59.996ZM32.5848 60.032C32.5848 59.348 32.4408 58.754 32.1528 58.25C31.8768 57.746 31.5108 57.362 31.0548 57.098C30.5988 56.834 30.1068 56.702 29.5788 56.702C29.0508 56.702 28.5588 56.834 28.1028 57.098C27.6468 57.35 27.2748 57.728 26.9868 58.232C26.7108 58.724 26.5728 59.312 26.5728 59.996C26.5728 60.68 26.7108 61.28 26.9868 61.796C27.2748 62.312 27.6468 62.708 28.1028 62.984C28.5708 63.248 29.0628 63.38 29.5788 63.38C30.1068 63.38 30.5988 63.248 31.0548 62.984C31.5108 62.72 31.8768 62.336 32.1528 61.832C32.4408 61.316 32.5848 60.716 32.5848 60.032ZM39.402 51.68L39.402 65L37.35 65L37.35 51.68L39.402 51.68ZM44.4901 56.756L44.4901 62.246C44.4901 62.618 44.5741 62.888 44.7421 63.056C44.9221 63.212 45.2221 63.29 45.6421 63.29L46.9021 63.29L46.9021 65L45.2821 65C44.3581 65 43.6501 64.784 43.1581 64.352C42.6661 63.92 42.4201 63.218 42.4201 62.246L42.4201 56.756L41.2501 56.756L41.2501 55.082L42.4201 55.082L42.4201 52.616L44.4901 52.616L44.4901 55.082L46.9021 55.082L46.9021 56.756L44.4901 56.756ZM53.9234 54.92C54.6794 54.92 55.3514 55.082 55.9394 55.406C56.5394 55.73 57.0074 56.21 57.3434 56.846C57.6914 57.482 57.8654 58.25 57.8654 59.15L57.8654 65L55.8314 65L55.8314 59.456C55.8314 58.568 55.6094 57.89 55.1654 57.422C54.7214 56.942 54.1154 56.702 53.3474 56.702C52.5794 56.702 51.9674 56.942 51.5114 57.422C51.0674 57.89 50.8454 58.568 50.8454 59.456L50.8454 65L48.7934 65L48.7934 51.68L50.8454 51.68L50.8454 56.234C51.1934 55.814 51.6314 55.49 52.1594 55.262C52.6994 55.034 53.2874 54.92 53.9234 54.92ZM64.4746 60.032C64.4746 59.012 64.6786 58.118 65.0866 57.35C65.5066 56.57 66.0826 55.97 66.8146 55.55C67.5466 55.13 68.3866 54.92 69.3346 54.92C70.5346 54.92 71.5246 55.208 72.3046 55.784C73.0966 56.348 73.6306 57.158 73.9066 58.214L71.6926 58.214C71.5126 57.722 71.2246 57.338 70.8286 57.062C70.4326 56.786 69.9346 56.648 69.3346 56.648C68.4946 56.648 67.8226 56.948 67.3186 57.548C66.8266 58.136 66.5806 58.964 66.5806 60.032C66.5806 61.1 66.8266 61.934 67.3186 62.534C67.8226 63.134 68.4946 63.434 69.3346 63.434C70.5226 63.434 71.3086 62.912 71.6926 61.868L73.9066 61.868C73.6186 62.876 73.0786 63.68 72.2866 64.28C71.4946 64.868 70.5106 65.162 69.3346 65.162C68.3866 65.162 67.5466 64.952 66.8146 64.532C66.0826 64.1 65.5066 63.5 65.0866 62.732C64.6786 61.952 64.4746 61.052 64.4746 60.032ZM75.2676 59.996C75.2676 59 75.4716 58.118 75.8796 57.35C76.2996 56.582 76.8636 55.988 77.5716 55.568C78.2916 55.136 79.0836 54.92 79.9476 54.92C80.7276 54.92 81.4056 55.076 81.9816 55.388C82.5696 55.688 83.0376 56.066 83.3856 56.522L83.3856 55.082L85.4556 55.082L85.4556 65L83.3856 65L83.3856 63.524C83.0376 63.992 82.5636 64.382 81.9636 64.694C81.3636 65.006 80.6796 65.162 79.9116 65.162C79.0596 65.162 78.2796 64.946 77.5716 64.514C76.8636 64.07 76.2996 63.458 75.8796 62.678C75.4716 61.886 75.2676 60.992 75.2676 59.996ZM83.3856 60.032C83.3856 59.348 83.2416 58.754 82.9536 58.25C82.6776 57.746 82.3116 57.362 81.8556 57.098C81.3996 56.834 80.9076 56.702 80.3796 56.702C79.8516 56.702 79.3596 56.834 78.9036 57.098C78.4476 57.35 78.0756 57.728 77.7876 58.232C77.5116 58.724 77.3736 59.312 77.3736 59.996C77.3736 60.68 77.5116 61.28 77.7876 61.796C78.0756 62.312 78.4476 62.708 78.9036 62.984C79.3716 63.248 79.8636 63.38 80.3796 63.38C80.9076 63.38 81.3996 63.248 81.8556 62.984C82.3116 62.72 82.6776 62.336 82.9536 61.832C83.2416 61.316 83.3856 60.716 83.3856 60.032ZM90.2028 56.522C90.5028 56.018 90.8988 55.628 91.3908 55.352C91.8948 55.064 92.4888 54.92 93.1728 54.92L93.1728 57.044L92.6508 57.044C91.8468 57.044 91.2348 57.248 90.8148 57.656C90.4068 58.064 90.2028 58.772 90.2028 59.78L90.2028 65L88.1508 65L88.1508 55.082L90.2028 55.082L90.2028 56.522ZM104.149 59.798C104.149 60.17 104.125 60.506 104.077 60.806L96.499 60.806C96.559 61.598 96.853 62.234 97.381 62.714C97.909 63.194 98.557 63.434 99.325 63.434C100.429 63.434 101.209 62.972 101.665 62.048L103.879 62.048C103.579 62.96 103.033 63.71 102.241 64.298C101.461 64.874 100.489 65.162 99.325 65.162C98.377 65.162 97.525 64.952 96.769 64.532C96.025 64.1 95.437 63.5 95.005 62.732C94.585 61.952 94.375 61.052 94.375 60.032C94.375 59.012 94.579 58.118 94.987 57.35C95.407 56.57 95.989 55.97 96.733 55.55C97.489 55.13 98.353 54.92 99.325 54.92C100.261 54.92 101.095 55.124 101.827 55.532C102.559 55.94 103.129 56.516 103.537 57.26C103.945 57.992 104.149 58.838 104.149 59.798ZM102.007 59.15C101.995 58.394 101.725 57.788 101.197 57.332C100.669 56.876 100.015 56.648 99.235 56.648C98.527 56.648 97.921 56.876 97.417 57.332C96.913 57.776 96.613 58.382 96.517 59.15L102.007 59.15Z" fill="#503217"/>
</svg>
