<svg width="15" height="14" viewBox="0 0 15 14" fill="none" xmlns="http://www.w3.org/2000/svg">
<g clip-path="url(#clip0_1678_88)">
<path d="M14.2623 4.15906C14.2299 3.42435 14.1111 2.91925 13.9409 2.48157C13.7653 2.01698 13.4952 1.60104 13.1413 1.25527C12.7955 0.904111 12.3768 0.631247 11.9176 0.458412C11.4774 0.288215 10.975 0.169405 10.2402 0.137011C9.50005 0.101875 9.26507 0.0937499 7.38773 0.0937499C5.5104 0.0937499 5.27542 0.101875 4.53797 0.134268C3.80326 0.166661 3.29816 0.285578 2.86058 0.455669C2.39589 0.631247 1.97995 0.901367 1.63417 1.25527C1.28302 1.60104 1.01026 2.01973 0.837319 2.47893C0.667122 2.91925 0.548311 3.42161 0.515918 4.15632C0.480781 4.89651 0.472656 5.13149 0.472656 7.00883C0.472656 8.88616 0.480781 9.12115 0.513174 9.8586C0.545568 10.5933 0.664484 11.0984 0.834681 11.5361C1.01026 12.0007 1.28302 12.4166 1.63417 12.7624C1.97995 13.1135 2.39863 13.3864 2.85784 13.5592C3.29816 13.7294 3.80052 13.8483 4.53533 13.8806C5.27267 13.9131 5.50776 13.9212 7.3851 13.9212C9.26243 13.9212 9.49742 13.9131 10.2349 13.8806C10.9696 13.8483 11.4747 13.7294 11.9122 13.5592C12.8415 13.2 13.5762 12.4653 13.9355 11.5361C14.1056 11.0958 14.2245 10.5933 14.2569 9.8586C14.2893 9.12115 14.2974 8.88616 14.2974 7.00883C14.2974 5.13149 14.2947 4.89651 14.2623 4.15906ZM13.0171 9.80457C12.9873 10.4799 12.8739 10.8445 12.7794 11.0876C12.547 11.69 12.0689 12.1681 11.4666 12.4005C11.2234 12.495 10.8561 12.6084 10.1835 12.6381C9.45415 12.6706 9.23542 12.6786 7.39048 12.6786C5.54554 12.6786 5.32406 12.6706 4.59737 12.6381C3.92207 12.6084 3.55741 12.495 3.3143 12.4005C3.01453 12.2897 2.74167 12.1141 2.52019 11.8845C2.29059 11.6603 2.11501 11.3902 2.00422 11.0904C1.90968 10.8473 1.79625 10.4799 1.7666 9.80732C1.7341 9.07799 1.72608 8.85915 1.72608 7.01421C1.72608 5.16927 1.7341 4.94779 1.7666 4.22121C1.79625 3.54591 1.90967 3.18125 2.00422 2.93814C2.11501 2.63826 2.29059 2.3655 2.52293 2.14392C2.74705 1.91432 3.01717 1.73874 3.31704 1.62805C3.56015 1.53351 3.92756 1.42008 4.60011 1.39033C5.32944 1.35793 5.54828 1.34981 7.39312 1.34981C9.2408 1.34981 9.45954 1.35793 10.1862 1.39033C10.8615 1.42008 11.2262 1.53351 11.4693 1.62805C11.7691 1.73874 12.0419 1.91432 12.2634 2.14392C12.493 2.36814 12.6686 2.63826 12.7794 2.93814C12.8739 3.18125 12.9873 3.54855 13.0171 4.22121C13.0495 4.95053 13.0576 5.16927 13.0576 7.01421C13.0576 8.85915 13.0495 9.07525 13.0171 9.80457Z" fill="#F2F2F2"/>
<path d="M7.38606 3.45703C5.42505 3.45703 3.83398 5.048 3.83398 7.00911C3.83398 8.97022 5.42505 10.5612 7.38606 10.5612C9.34718 10.5612 10.9381 8.97022 10.9381 7.00911C10.9381 5.048 9.34718 3.45703 7.38606 3.45703ZM7.38606 9.31325C6.11386 9.31325 5.08192 8.28142 5.08192 7.00911C5.08192 5.7368 6.11386 4.70496 7.38606 4.70496C8.65837 4.70496 9.69021 5.7368 9.69021 7.00911C9.69021 8.28142 8.65837 9.31325 7.38606 9.31325Z" fill="#F2F2F2"/>
<path d="M11.7856 3.68862C11.7856 4.14656 11.4142 4.51787 10.9562 4.51787C10.4983 4.51787 10.127 4.14656 10.127 3.68862C10.127 3.23058 10.4983 2.85937 10.9562 2.85937C11.4142 2.85937 11.7856 3.23058 11.7856 3.68862Z" fill="#F2F2F2"/>
</g>
<defs>
<clipPath id="clip0_1678_88">
<rect width="13.8275" height="13.8275" fill="white" transform="translate(0.447266 0.09375)"/>
</clipPath>
</defs>
</svg>
