<svg width="110" height="82" viewBox="0 0 110 82" fill="none" xmlns="http://www.w3.org/2000/svg">
<path d="M24.2666 63.372C25.6346 63.372 26.8166 63.624 27.8126 64.128C28.8086 64.632 29.5646 65.34 30.0806 66.252C30.6086 67.152 30.8726 68.202 30.8726 69.402C30.8726 70.362 30.7046 71.28 30.3686 72.156C30.0446 73.032 29.5706 73.746 28.9466 74.298C28.3346 74.85 27.6086 75.126 26.7686 75.126C26.1566 75.126 25.6766 74.994 25.3286 74.73C24.9806 74.454 24.7646 74.07 24.6806 73.578C24.3086 74.058 23.8406 74.436 23.2766 74.712C22.7126 74.988 22.1246 75.126 21.5126 75.126C20.5886 75.126 19.8626 74.85 19.3346 74.298C18.8186 73.734 18.5606 72.972 18.5606 72.012C18.5606 71.1 18.7466 70.248 19.1186 69.456C19.5026 68.664 20.0366 68.034 20.7206 67.566C21.4046 67.086 22.1726 66.846 23.0246 66.846C24.0686 66.846 24.8006 67.2 25.2206 67.908L25.3826 67.008H27.1646L26.2646 72.156C26.2286 72.408 26.2106 72.63 26.2106 72.822C26.2106 73.134 26.2706 73.368 26.3906 73.524C26.5226 73.68 26.7506 73.758 27.0746 73.758C27.5306 73.758 27.9206 73.536 28.2446 73.092C28.5686 72.636 28.8086 72.078 28.9646 71.418C29.1326 70.758 29.2166 70.116 29.2166 69.492C29.2166 67.968 28.7726 66.804 27.8846 66C26.9966 65.196 25.7066 64.794 24.0146 64.794C22.5986 64.794 21.3266 65.13 20.1986 65.802C19.0826 66.474 18.2066 67.398 17.5706 68.574C16.9346 69.75 16.6166 71.058 16.6166 72.498C16.6166 74.034 17.0726 75.204 17.9846 76.008C18.8966 76.812 20.1986 77.214 21.8906 77.214C23.0306 77.214 24.0266 77.004 24.8786 76.584L25.1486 77.952C24.0566 78.42 22.8326 78.654 21.4766 78.654C20.1686 78.654 19.0226 78.408 18.0386 77.916C17.0546 77.424 16.2926 76.722 15.7526 75.81C15.2126 74.91 14.9426 73.86 14.9426 72.66C14.9426 70.944 15.3386 69.378 16.1306 67.962C16.9346 66.546 18.0446 65.43 19.4606 64.614C20.8766 63.786 22.4786 63.372 24.2666 63.372ZM22.1426 73.542C22.6466 73.542 23.1026 73.398 23.5106 73.11C23.9306 72.81 24.2606 72.42 24.5006 71.94C24.7406 71.448 24.8606 70.926 24.8606 70.374C24.8606 69.798 24.6986 69.33 24.3746 68.97C24.0626 68.598 23.6186 68.412 23.0426 68.412C22.5266 68.412 22.0706 68.574 21.6746 68.898C21.2906 69.21 20.9906 69.618 20.7746 70.122C20.5706 70.626 20.4686 71.154 20.4686 71.706C20.4686 72.27 20.6066 72.72 20.8826 73.056C21.1586 73.38 21.5786 73.542 22.1426 73.542ZM45.4956 64.92C46.2756 64.92 46.9716 65.082 47.5836 65.406C48.2076 65.73 48.6936 66.21 49.0416 66.846C49.4016 67.482 49.5816 68.25 49.5816 69.15V75H47.5476V69.456C47.5476 68.568 47.3256 67.89 46.8816 67.422C46.4376 66.942 45.8316 66.702 45.0636 66.702C44.2956 66.702 43.6836 66.942 43.2276 67.422C42.7836 67.89 42.5616 68.568 42.5616 69.456V75H40.5276V69.456C40.5276 68.568 40.3056 67.89 39.8616 67.422C39.4176 66.942 38.8116 66.702 38.0436 66.702C37.2756 66.702 36.6636 66.942 36.2076 67.422C35.7636 67.89 35.5416 68.568 35.5416 69.456V75H33.4896V65.082H35.5416V66.216C35.8776 65.808 36.3036 65.49 36.8196 65.262C37.3356 65.034 37.8876 64.92 38.4756 64.92C39.2676 64.92 39.9756 65.088 40.5996 65.424C41.2236 65.76 41.7036 66.246 42.0396 66.882C42.3396 66.282 42.8076 65.808 43.4436 65.46C44.0796 65.1 44.7636 64.92 45.4956 64.92ZM61.2828 69.798C61.2828 70.17 61.2588 70.506 61.2108 70.806H53.6328C53.6928 71.598 53.9868 72.234 54.5148 72.714C55.0428 73.194 55.6908 73.434 56.4588 73.434C57.5628 73.434 58.3428 72.972 58.7988 72.048H61.0128C60.7128 72.96 60.1668 73.71 59.3748 74.298C58.5948 74.874 57.6228 75.162 56.4588 75.162C55.5108 75.162 54.6588 74.952 53.9028 74.532C53.1588 74.1 52.5708 73.5 52.1388 72.732C51.7188 71.952 51.5088 71.052 51.5088 70.032C51.5088 69.012 51.7128 68.118 52.1208 67.35C52.5408 66.57 53.1228 65.97 53.8668 65.55C54.6228 65.13 55.4868 64.92 56.4588 64.92C57.3948 64.92 58.2288 65.124 58.9608 65.532C59.6928 65.94 60.2628 66.516 60.6708 67.26C61.0788 67.992 61.2828 68.838 61.2828 69.798ZM59.1408 69.15C59.1288 68.394 58.8588 67.788 58.3308 67.332C57.8028 66.876 57.1488 66.648 56.3688 66.648C55.6608 66.648 55.0548 66.876 54.5508 67.332C54.0468 67.776 53.7468 68.382 53.6508 69.15H59.1408ZM62.6181 69.996C62.6181 69 62.8221 68.118 63.2301 67.35C63.6501 66.582 64.2141 65.988 64.9221 65.568C65.6421 65.136 66.4401 64.92 67.3161 64.92C67.9641 64.92 68.6001 65.064 69.2241 65.352C69.8601 65.628 70.3641 66 70.7361 66.468V61.68H72.8061V75H70.7361V73.506C70.4001 73.986 69.9321 74.382 69.3321 74.694C68.7441 75.006 68.0661 75.162 67.2981 75.162C66.4341 75.162 65.6421 74.946 64.9221 74.514C64.2141 74.07 63.6501 73.458 63.2301 72.678C62.8221 71.886 62.6181 70.992 62.6181 69.996ZM70.7361 70.032C70.7361 69.348 70.5921 68.754 70.3041 68.25C70.0281 67.746 69.6621 67.362 69.2061 67.098C68.7501 66.834 68.2581 66.702 67.7301 66.702C67.2021 66.702 66.7101 66.834 66.2541 67.098C65.7981 67.35 65.4261 67.728 65.1381 68.232C64.8621 68.724 64.7241 69.312 64.7241 69.996C64.7241 70.68 64.8621 71.28 65.1381 71.796C65.4261 72.312 65.7981 72.708 66.2541 72.984C66.7221 73.248 67.2141 73.38 67.7301 73.38C68.2581 73.38 68.7501 73.248 69.2061 72.984C69.6621 72.72 70.0281 72.336 70.3041 71.832C70.5921 71.316 70.7361 70.716 70.7361 70.032ZM76.5454 63.768C76.1734 63.768 75.8614 63.642 75.6094 63.39C75.3574 63.138 75.2314 62.826 75.2314 62.454C75.2314 62.082 75.3574 61.77 75.6094 61.518C75.8614 61.266 76.1734 61.14 76.5454 61.14C76.9054 61.14 77.2114 61.266 77.4634 61.518C77.7154 61.77 77.8414 62.082 77.8414 62.454C77.8414 62.826 77.7154 63.138 77.4634 63.39C77.2114 63.642 76.9054 63.768 76.5454 63.768ZM77.5534 65.082V75H75.5014V65.082H77.5534ZM84.4055 66.756H82.5695V75H80.4995V66.756H79.3295V65.082H80.4995V64.38C80.4995 63.24 80.7995 62.412 81.3995 61.896C82.0115 61.368 82.9655 61.104 84.2615 61.104V62.814C83.6375 62.814 83.1995 62.934 82.9475 63.174C82.6955 63.402 82.5695 63.804 82.5695 64.38V65.082H84.4055V66.756ZM87.268 63.768C86.896 63.768 86.584 63.642 86.332 63.39C86.08 63.138 85.954 62.826 85.954 62.454C85.954 62.082 86.08 61.77 86.332 61.518C86.584 61.266 86.896 61.14 87.268 61.14C87.628 61.14 87.934 61.266 88.186 61.518C88.438 61.77 88.564 62.082 88.564 62.454C88.564 62.826 88.438 63.138 88.186 63.39C87.934 63.642 87.628 63.768 87.268 63.768ZM88.276 65.082V75H86.224V65.082H88.276ZM93.3641 66.756V72.246C93.3641 72.618 93.4481 72.888 93.6161 73.056C93.7961 73.212 94.0961 73.29 94.5161 73.29H95.7761V75H94.1561C93.2321 75 92.5241 74.784 92.0321 74.352C91.5401 73.92 91.2941 73.218 91.2941 72.246V66.756H90.1241V65.082H91.2941V62.616H93.3641V65.082H95.7761V66.756H93.3641Z" fill="#503217"/>
<path fill-rule="evenodd" clip-rule="evenodd" d="M57.5 4.6875H52.5C45.0786 4.6875 41.368 4.6875 38.7667 6.57744C37.9266 7.18781 37.1878 7.9266 36.5774 8.76671C34.6875 11.368 34.6875 15.0786 34.6875 22.5V27.5C34.6875 34.9212 34.6875 38.6321 36.5774 41.2333C37.1878 42.0733 37.9266 42.8123 38.7667 43.4225C41.368 45.3125 45.0786 45.3125 52.5 45.3125H57.5C64.9212 45.3125 68.6321 45.3125 71.2333 43.4225C72.0733 42.8123 72.8123 42.0733 73.4225 41.2333C75.3125 38.6321 75.3125 34.9212 75.3125 27.5V22.5C75.3125 15.0786 75.3125 11.368 73.4225 8.76671C72.8123 7.9266 72.0733 7.18781 71.2333 6.57744C68.6321 4.6875 64.9212 4.6875 57.5 4.6875ZM63.3333 25C63.3333 29.6023 59.6023 33.3333 55 33.3333C50.3976 33.3333 46.6667 29.6023 46.6667 25C46.6667 20.3976 50.3976 16.6667 55 16.6667C59.6023 16.6667 63.3333 20.3976 63.3333 25ZM66.4583 15.625C67.609 15.625 68.5417 14.6922 68.5417 13.5417C68.5417 12.3911 67.609 11.4583 66.4583 11.4583C65.3077 11.4583 64.375 12.3911 64.375 13.5417C64.375 14.6922 65.3077 15.625 66.4583 15.625Z" fill="#503217"/>
</svg>
