<svg width="89" height="72" viewBox="0 0 89 72" fill="none" xmlns="http://www.w3.org/2000/svg">
<path d="M29.5 20C29.5 14.4772 33.9772 10 39.5 10H44.5H49.5C55.0228 10 59.5 14.4772 59.5 20C59.5 25.5228 55.0228 30 49.5 30H44.5H39.5C33.9772 30 29.5 25.5228 29.5 20Z" fill="#E2DFCF" fill-opacity="0.18"/>
<path d="M44.5 10H39.5C33.9772 10 29.5 14.4772 29.5 20C29.5 25.5228 33.9772 30 39.5 30H44.5M44.5 10H49.5C55.0228 10 59.5 14.4772 59.5 20C59.5 25.5228 55.0228 30 49.5 30H44.5M44.5 10V30" stroke="#503217" stroke-width="2.5" stroke-linejoin="round"/>
<path d="M14.526 52.49L14.526 65L12.474 65L12.474 56.432L8.658 65L7.236 65L3.402 56.432L3.402 65L1.35 65L1.35 52.49L3.564 52.49L7.956 62.3L12.33 52.49L14.526 52.49ZM26.313 59.798C26.313 60.17 26.289 60.506 26.241 60.806L18.663 60.806C18.723 61.598 19.017 62.234 19.545 62.714C20.073 63.194 20.721 63.434 21.489 63.434C22.593 63.434 23.373 62.972 23.829 62.048L26.043 62.048C25.743 62.96 25.197 63.71 24.405 64.298C23.625 64.874 22.653 65.162 21.489 65.162C20.541 65.162 19.689 64.952 18.933 64.532C18.189 64.1 17.601 63.5 17.169 62.732C16.749 61.952 16.539 61.052 16.539 60.032C16.539 59.012 16.743 58.118 17.151 57.35C17.571 56.57 18.153 55.97 18.897 55.55C19.653 55.13 20.517 54.92 21.489 54.92C22.425 54.92 23.259 55.124 23.991 55.532C24.723 55.94 25.293 56.516 25.701 57.26C26.109 57.992 26.313 58.838 26.313 59.798ZM24.171 59.15C24.159 58.394 23.889 57.788 23.361 57.332C22.833 56.876 22.179 56.648 21.399 56.648C20.691 56.648 20.085 56.876 19.581 57.332C19.077 57.776 18.777 58.382 18.681 59.15L24.171 59.15ZM27.6484 59.996C27.6484 59 27.8524 58.118 28.2604 57.35C28.6804 56.582 29.2444 55.988 29.9524 55.568C30.6724 55.136 31.4704 54.92 32.3464 54.92C32.9944 54.92 33.6304 55.064 34.2544 55.352C34.8904 55.628 35.3944 56 35.7664 56.468L35.7664 51.68L37.8364 51.68L37.8364 65L35.7664 65L35.7664 63.506C35.4304 63.986 34.9624 64.382 34.3624 64.694C33.7744 65.006 33.0964 65.162 32.3284 65.162C31.4644 65.162 30.6724 64.946 29.9524 64.514C29.2444 64.07 28.6804 63.458 28.2604 62.678C27.8524 61.886 27.6484 60.992 27.6484 59.996ZM35.7664 60.032C35.7664 59.348 35.6224 58.754 35.3344 58.25C35.0584 57.746 34.6924 57.362 34.2364 57.098C33.7804 56.834 33.2884 56.702 32.7604 56.702C32.2324 56.702 31.7404 56.834 31.2844 57.098C30.8284 57.35 30.4564 57.728 30.1684 58.232C29.8924 58.724 29.7544 59.312 29.7544 59.996C29.7544 60.68 29.8924 61.28 30.1684 61.796C30.4564 62.312 30.8284 62.708 31.2844 62.984C31.7524 63.248 32.2444 63.38 32.7604 63.38C33.2884 63.38 33.7804 63.248 34.2364 62.984C34.6924 62.72 35.0584 62.336 35.3344 61.832C35.6224 61.316 35.7664 60.716 35.7664 60.032ZM41.5756 53.768C41.2036 53.768 40.8916 53.642 40.6396 53.39C40.3876 53.138 40.2616 52.826 40.2616 52.454C40.2616 52.082 40.3876 51.77 40.6396 51.518C40.8916 51.266 41.2036 51.14 41.5756 51.14C41.9356 51.14 42.2416 51.266 42.4936 51.518C42.7456 51.77 42.8716 52.082 42.8716 52.454C42.8716 52.826 42.7456 53.138 42.4936 53.39C42.2416 53.642 41.9356 53.768 41.5756 53.768ZM42.5836 55.082L42.5836 65L40.5316 65L40.5316 55.082L42.5836 55.082ZM44.5937 60.032C44.5937 59.012 44.7977 58.118 45.2057 57.35C45.6257 56.57 46.2017 55.97 46.9337 55.55C47.6657 55.13 48.5057 54.92 49.4537 54.92C50.6537 54.92 51.6437 55.208 52.4237 55.784C53.2157 56.348 53.7497 57.158 54.0257 58.214L51.8117 58.214C51.6317 57.722 51.3437 57.338 50.9477 57.062C50.5517 56.786 50.0537 56.648 49.4537 56.648C48.6137 56.648 47.9417 56.948 47.4377 57.548C46.9457 58.136 46.6997 58.964 46.6997 60.032C46.6997 61.1 46.9457 61.934 47.4377 62.534C47.9417 63.134 48.6137 63.434 49.4537 63.434C50.6417 63.434 51.4277 62.912 51.8117 61.868L54.0257 61.868C53.7377 62.876 53.1977 63.68 52.4057 64.28C51.6137 64.868 50.6297 65.162 49.4537 65.162C48.5057 65.162 47.6657 64.952 46.9337 64.532C46.2017 64.1 45.6257 63.5 45.2057 62.732C44.7977 61.952 44.5937 61.052 44.5937 60.032ZM57.1147 53.768C56.7427 53.768 56.4307 53.642 56.1787 53.39C55.9267 53.138 55.8007 52.826 55.8007 52.454C55.8007 52.082 55.9267 51.77 56.1787 51.518C56.4307 51.266 56.7427 51.14 57.1147 51.14C57.4747 51.14 57.7807 51.266 58.0327 51.518C58.2847 51.77 58.4107 52.082 58.4107 52.454C58.4107 52.826 58.2847 53.138 58.0327 53.39C57.7807 53.642 57.4747 53.768 57.1147 53.768ZM58.1227 55.082L58.1227 65L56.0707 65L56.0707 55.082L58.1227 55.082ZM65.8208 54.92C66.6008 54.92 67.2968 55.082 67.9088 55.406C68.5328 55.73 69.0188 56.21 69.3668 56.846C69.7148 57.482 69.8888 58.25 69.8888 59.15L69.8888 65L67.8548 65L67.8548 59.456C67.8548 58.568 67.6328 57.89 67.1888 57.422C66.7448 56.942 66.1388 56.702 65.3708 56.702C64.6028 56.702 63.9908 56.942 63.5348 57.422C63.0908 57.89 62.8688 58.568 62.8688 59.456L62.8688 65L60.8168 65L60.8168 55.082L62.8688 55.082L62.8688 56.216C63.2048 55.808 63.6308 55.49 64.1468 55.262C64.6748 55.034 65.2328 54.92 65.8208 54.92ZM81.5963 59.798C81.5963 60.17 81.5723 60.506 81.5243 60.806L73.9463 60.806C74.0063 61.598 74.3003 62.234 74.8283 62.714C75.3563 63.194 76.0043 63.434 76.7723 63.434C77.8763 63.434 78.6563 62.972 79.1123 62.048L81.3263 62.048C81.0263 62.96 80.4803 63.71 79.6883 64.298C78.9083 64.874 77.9363 65.162 76.7723 65.162C75.8243 65.162 74.9723 64.952 74.2163 64.532C73.4723 64.1 72.8843 63.5 72.4523 62.732C72.0323 61.952 71.8223 61.052 71.8223 60.032C71.8223 59.012 72.0263 58.118 72.4343 57.35C72.8543 56.57 73.4363 55.97 74.1803 55.55C74.9363 55.13 75.8003 54.92 76.7723 54.92C77.7083 54.92 78.5423 55.124 79.2743 55.532C80.0063 55.94 80.5763 56.516 80.9843 57.26C81.3923 57.992 81.5963 58.838 81.5963 59.798ZM79.4543 59.15C79.4423 58.394 79.1723 57.788 78.6443 57.332C78.1163 56.876 77.4623 56.648 76.6823 56.648C75.9743 56.648 75.3683 56.876 74.8643 57.332C74.3603 57.776 74.0603 58.382 73.9643 59.15L79.4543 59.15Z" fill="#503217"/>
</svg>
