<svg width="60" height="60" viewBox="0 0 60 60" fill="none" xmlns="http://www.w3.org/2000/svg">
<g clip-path="url(#clip0_1189_64)">
<path d="M59.1224 37.0519C50.0319 37.0519 42.2102 42.5871 38.8502 50.4641L38.8502 23.7397C38.8502 19.6809 35.7728 16.3274 31.8291 15.8894L31.8291 12.3304L32.7067 12.3304C34.1584 12.3304 35.3396 11.1492 35.3396 9.69749C35.3396 8.24576 34.1584 7.06457 32.7067 7.06457L28.3185 7.06457L28.3185 0.921096C28.3185 0.436288 27.9257 0.0434567 27.4409 0.0434567L11.4093 0.0434569C10.9245 0.0434569 10.5317 0.436288 10.5317 0.921096L10.5317 7.06457L6.14348 7.06457C4.69174 7.06457 3.51056 8.24576 3.51056 9.69749C3.51056 11.1492 4.69174 12.3304 6.14348 12.3304L7.02112 12.3304L7.02112 15.8894C3.07736 16.3274 2.46267e-07 19.6809 2.97167e-07 23.7397L6.96324e-07 55.5688C7.26669e-07 57.9885 1.96849 59.957 4.3882 59.957L34.462 59.957C34.824 59.957 35.1833 59.9096 35.534 59.8214C36.335 59.9099 37.1484 59.957 37.9725 59.957C50.1186 59.957 60 50.0756 60 37.9296C60 37.4448 59.6072 37.0519 59.1224 37.0519ZM54.3004 39.3879C51.5025 41.0938 48.6698 43.3451 46.0289 45.986C43.3873 48.6275 41.1361 51.4608 39.4301 54.2593C41.2207 46.9471 46.9883 41.179 54.3004 39.3879ZM17.7454 39.2811C25.1667 42.7146 33.1873 50.7354 36.6209 58.1567C26.5179 57.488 18.414 49.384 17.7454 39.2811ZM36.5147 54.259C34.8088 51.4605 32.5576 48.6272 29.9163 45.9859C27.2754 43.3451 24.4426 41.0937 21.6448 39.3878C28.9566 41.1789 34.7242 46.947 36.5147 54.259ZM12.287 1.79874L26.5632 1.79874L26.5632 7.06457L12.287 7.06457L12.287 1.79874ZM4.3882 58.2017C2.93647 58.2017 1.75528 57.0205 1.75528 55.5688L1.75528 23.7397C1.75528 20.3523 4.5113 17.5962 7.89875 17.5962C8.38356 17.5962 8.77639 17.2034 8.77639 16.7186L8.77639 11.4528C8.77639 10.968 8.38356 10.5751 7.89875 10.5751L6.14348 10.5751C5.65949 10.5751 5.26584 10.1815 5.26584 9.69749C5.26584 9.2135 5.65949 8.81985 6.14348 8.81985L32.7067 8.81985C33.1907 8.81985 33.5843 9.2135 33.5843 9.69749C33.5843 10.1815 33.1907 10.5751 32.7067 10.5751L11.4093 10.5751C10.9245 10.5751 10.5317 10.968 10.5317 11.4528L10.5317 16.7186C10.5317 17.2034 10.9245 17.5962 11.4093 17.5962L27.4409 17.5962C27.9257 17.5962 28.3185 17.2034 28.3185 16.7186L28.3185 12.3304L30.0738 12.3304L30.0738 16.7186C30.0738 17.2034 30.4666 17.5962 30.9514 17.5962C34.3389 17.5962 37.0949 20.3523 37.0949 23.7397L37.0949 50.4642C36.6025 49.3097 36.0138 48.2059 35.3396 47.162L35.3396 23.7397C35.3396 23.2549 34.9468 22.8621 34.462 22.8621C32.3314 22.8621 31.2197 23.5543 30.2388 24.1649C29.3444 24.7216 28.5721 25.2025 26.9433 25.2025C25.3145 25.2025 24.5421 24.7216 23.6478 24.1649C22.6669 23.5543 21.5552 22.8621 19.4246 22.8621C17.2942 22.8621 16.1825 23.5543 15.2017 24.1649C14.3073 24.7216 13.5351 25.2025 11.9063 25.2025C10.2777 25.2025 9.5053 24.7216 8.61116 24.1649C7.63031 23.5543 6.51864 22.8621 4.3882 22.8621C3.90339 22.8621 3.51056 23.2549 3.51056 23.7397L3.51056 48.5477C3.51056 49.0325 3.90339 49.4253 4.3882 49.4253C4.87301 49.4253 5.26584 49.0325 5.26584 48.5477L5.26584 24.6712C6.32883 24.8116 6.96705 25.2089 7.68344 25.655C8.66429 26.2656 9.77597 26.9577 11.9063 26.9577C14.0367 26.9577 15.1485 26.2656 16.1294 25.655C17.0237 25.0982 17.796 24.6174 19.4246 24.6174C21.0534 24.6174 21.8258 25.0982 22.7201 25.655C23.7011 26.2656 24.8127 26.9577 26.9433 26.9577C29.0739 26.9577 30.1855 26.2656 31.1665 25.655C31.883 25.2088 32.5211 24.8115 33.5843 24.6712L33.5843 44.8031C29.541 40.0629 23.5269 37.052 16.8228 37.052C16.338 37.052 15.9452 37.4448 15.9452 37.9296C15.9452 44.6342 18.957 50.6478 23.6978 54.6911L5.26584 54.6911L5.26584 52.0582C5.26584 51.5734 4.87301 51.1806 4.3882 51.1806C3.90339 51.1806 3.51056 51.5734 3.51056 52.0582L3.51056 55.5688C3.51056 56.0536 3.90339 56.4464 4.3882 56.4464L26.0547 56.4464C27.0986 57.1207 28.2029 57.7092 29.3575 58.2017L4.3882 58.2017ZM26.5632 12.3304L26.5632 15.841L12.287 15.841L12.287 12.3304L26.5632 12.3304ZM39.3242 58.1567C42.7578 50.7353 50.7785 42.7146 58.1999 39.2811C57.5313 49.384 49.4272 57.488 39.3242 58.1567Z" fill="#503217"/>
</g>
<defs>
<clipPath id="clip0_1189_64">
<rect width="60" height="60" fill="white"/>
</clipPath>
</defs>
</svg>
