<svg width="22" height="21" viewBox="0 0 22 21" fill="none" xmlns="http://www.w3.org/2000/svg">
<path d="M19.5507 3.21755L19.0277 2.6928C18.2336 1.89602 17.8366 1.49764 17.3487 1.41373C17.1911 1.38664 17.0302 1.38369 16.8717 1.40501C16.3812 1.47102 15.9698 1.85462 15.1471 2.62182L11.2762 6.23159L7.54679 2.48957C6.7527 1.69279 6.35565 1.2944 5.8678 1.2105C5.71024 1.1834 5.54929 1.18046 5.39085 1.20178C4.90025 1.26778 4.4889 1.65138 3.6662 2.41859L3.11891 2.92896C2.29621 3.69617 1.88486 4.07977 1.79872 4.55159C1.7709 4.70397 1.76805 4.85967 1.79028 5.01296C1.85911 5.48762 2.25616 5.88601 3.05025 6.68279L6.77968 10.4248L2.90881 14.0346C2.0861 14.8018 1.67475 15.1854 1.58861 15.6572C1.56079 15.8096 1.55794 15.9653 1.58017 16.1186C1.649 16.5932 2.04605 16.9916 2.84015 17.7884L3.36313 18.3132C4.15723 19.1099 4.55428 19.5083 5.04213 19.5922C5.19969 19.6193 5.36064 19.6223 5.51908 19.6009C6.00968 19.5349 6.42103 19.1513 7.24373 18.3841L11.1146 14.7744L14.844 18.5164C15.6381 19.3132 16.0352 19.7116 16.523 19.7955C16.6806 19.8225 16.8415 19.8255 17 19.8042C17.4906 19.7382 17.9019 19.3546 18.7246 18.5874L19.2719 18.077C20.0946 17.3098 20.506 16.9262 20.5921 16.4544C20.6199 16.302 20.6228 16.1463 20.6006 15.993C20.5317 15.5183 20.1347 15.1199 19.3406 14.3232L15.6111 10.5811L19.482 6.97138C20.3047 6.20418 20.7161 5.82057 20.8022 5.34875C20.83 5.19637 20.8329 5.04067 20.8107 4.88738C20.7418 4.41272 20.3448 4.01433 19.5507 3.21755Z" stroke="#503217" stroke-width="1.5" stroke-linecap="round" stroke-linejoin="round"/>
</svg>
